<?xml version="1.0" encoding="UTF-8"?>
<svg id="Capa_1" data-name="Capa 1" xmlns="http://www.w3.org/2000/svg" viewBox="0 0 800 800">
  <defs>
    <style>
      .cls-1 {
        fill: #fff;
      }

      .cls-2 {
        fill: #306fc5;
      }
    </style>
  </defs>
  <path class="cls-2" d="M800,628.6c0,26.1-21.2,47.3-47.3,47.3H47.3c-26.1,0-47.3-21.2-47.3-47.3V171.4c0-26.1,21.2-47.3,47.3-47.3h705.4c26.1,0,47.3,21.2,47.3,47.3v457.1h0v.1Z"/>
  <g>
    <polygon class="cls-1" points="116.7 339.7 140.6 339.7 128.6 309.3 116.7 339.7"/>
    <polygon class="cls-1" points="243.8 441.8 243.8 456 284 456 284 471.2 243.8 471.2 243.8 487.5 288.3 487.5 309 464.6 289.4 441.8 243.8 441.8"/>
    <polygon class="cls-1" points="557.8 309.3 544.7 339.7 569.7 339.7 557.8 309.3"/>
    <polygon class="cls-1" points="360 496.1 360 434.2 331.8 464.6 360 496.1"/>
    <path class="cls-1" d="M413.3,451.6c-1.1-6.5-5.4-9.8-12-9.8h-22.8v19.6h23.9c6.5,0,10.9-3.3,10.9-9.8h0Z"/>
    <path class="cls-1" d="M489.3,459.2c2.2-1.1,3.3-4.4,3.3-7.6,1.1-4.3-1.1-6.5-3.3-7.6-2.2-1.1-5.4-1.1-8.7-1.1h-21.7v17.4h21.7c3.3,0,6.5,0,8.7-1.1h0Z"/>
    <path class="cls-1" d="M645.8,281v13l-6.5-13h-51.1v13l-6.5-13h-69.5c-12,0-21.7,2.2-30.4,6.5v-6.5h-48.9v6.5c-5.4-4.3-12-6.5-20.6-6.5h-174.9l-12,27.2-11.9-27.2h-55.4v13l-5.4-13h-47.8l-21.7,51.1-25,55.4-.5,1.1h56.6l.4-1.1,6.5-16.3h14.1l6.5,17.4h63v-13l5.4,13h31.5l5.4-13v13h151v-28.3h2.2c1.47,0,2.2,1.1,2.2,3.3v23.9h78.2v-6.5c6.5,3.3,16.3,6.5,29.3,6.5h32.6l6.5-17.4h15.2l6.5,17.4h63v-16.3l9.8,16.3h51.1v-106.5h-48.9ZM277.5,372.3h-17.4v-59.8l-1.1,2.5h0l-25.3,57.3h-16l-26.1-59.8v59.8h-36.9l-7.6-16.3h-36.9l-7.6,16.3h-19.1l32.1-76.1h27.2l30.4,72.8v-72.8h28.8l.5,1.1h0l13.7,29.8,9.8,22.4.3-1.1,21.7-52.1h29.3v76.1h0l.2-.1ZM352.4,312.5h-42.4v14.1h41.3v15.2h-41.3v15.2h42.4v16.3h-60.8v-77.1h60.8v16.3h0ZM429.9,340.6h0c.4.4.8.9,1.1,1.3,2.1,2.7,3.8,6.8,3.8,12.7v.5c0,.1,0,0,0,0v17.1h-16.3v-8.7c0-4.3,0-10.9-3.3-15.2-1-1-2.1-1.7-3.2-2.2-1.6-1.1-4.7-1.1-9.8-1.1h-19.6v27.2h-18.5v-76.1h41.3c9.8,0,16.3,0,21.7,3.3,5.3,3.2,8.5,8.5,8.7,16.9-.3,11.6-7.7,17.9-13,20,0,0,3.6.7,6.9,4.1l.2.2ZM466.5,372.3h-18.5v-76.1h18.5v76.1ZM678.4,372.3h-23.9l-34.8-57.6v47.8h-.1c0-.1,0,9.8,0,9.8h-36.9l-6.5-16.3h-38l-6.5,17.4h-20.6c-8.7,0-19.6-2.2-26.1-8.7s-9.8-15.2-9.8-29.3,2.2-21.7,9.8-30.4c5.4-6.5,15.2-8.7,27.2-8.7h17.4v16.3h-17.4c-6.5,0-9.8,1.1-14.1,4.3-3.3,3.3-5.4,9.8-5.4,17.4s1.1,14.1,5.4,18.5c3.3,3.3,7.6,4.4,13,4.4h7.6l25-59.8h27.2l30.4,72.8v-72.8h27.2l31.5,53.2v-53.2h18.5v75h0l-.1-.1Z"/>
    <path class="cls-1" d="M414.4,327.9c.3-.3.6-.7.8-1.2,1-1.6,2.1-4.4,1.5-8.2,0-.4,0-.7-.2-1v-.3h0c-.5-1.9-1.9-3-3.3-3.7-2.2-1.1-5.4-1.1-8.7-1.1h-21.7v17.4h21.7c3.3,0,6.5,0,8.7-1.1.3-.2.6-.4.9-.6h0l.3-.3v.1Z"/>
    <path class="cls-1" d="M742.5,480.9c0-7.6-2.2-15.2-5.4-20.6v-48.9h0v-3.3h-52.3c-6.8,0-15,6.5-15,6.5v-6.5h-50c-7.6,0-17.4,2.2-21.7,6.5v-6.5h-89.1v6.5c-6.5-5.4-18.5-6.5-23.9-6.5h-58.7v6.5c-5.4-5.4-18.5-6.5-25-6.5h-65.2l-15.2,16.3-14.1-16.3h-97.8v109.7h95.6l15.7-15.7,13.6,15.7h60.8v-25h5.4c7.6,0,17.4,0,25-3.3v29.3h48.9v-28.3h2.2c2.2,0,3.3,1.1,3.3,3.3v25h147.8c9.8,0,19.6-2.2,25-6.5v6.5h46.7c9.8,0,19.6-1.1,26.1-5.4,10-6,16.3-16.6,17.2-29.3,0-.4,0-.8.1-1.1h0v-2.2.1ZM400.2,474.4h-21.7v28.2h-35.7l-20.8-23.9h0l-1-1.1-23.9,25h-69.5v-76.1h70.6l19.3,21.1,4.1,4.4.6-.6,22.8-25h57.6c11.2,0,23.7,2.8,28.4,14.1.6,2.3.9,4.8.9,7.6,0,21.7-15.2,26.1-31.5,26.1l-.2.2ZM508.9,473.3c2.2,3.3,3.3,7.6,3.3,14.1v15.2h-18.5v-9.8c0-4.4,0-12-3.3-15.2-2.2-3.3-6.5-3.3-13-3.3h-19.6v28.2h-18.5v-77.1h41.3c8.7,0,16.3,0,21.7,3.3,5.4,3.3,9.8,8.7,9.8,17.4s-7.6,18.5-13,20.6c5.4,2.2,8.7,4.3,9.8,6.5v.1ZM583.8,441.8h-42.4v14.1h41.3v15.2h-41.3v15.2h42.4v16.3h-60.8v-77.1h60.8v16.3ZM629.5,502.7h-34.8v-16.3h34.8c3.3,0,5.4,0,7.6-2.2,1.1-1.1,2.2-3.3,2.2-5.4s-1.1-4.3-2.2-5.4c-1.1-1.1-3.3-2.2-6.5-2.2-17.4-1.1-38,0-38-23.9s6.5-22.8,26.1-22.8h35.9v18.5h-33.7c-3.3,0-5.4,0-7.6,1.1-2.2,1.1-2.2,3.3-2.2,5.4,0,3.3,2.2,4.3,4.3,5.4,2.2,1.1,4.3,1.1,6.5,1.1h9.8c9.8,0,16.3,2.2,20.6,6.5,3.3,3.3,5.4,8.7,5.4,16.3,0,16.3-9.8,23.9-28.2,23.9h0ZM722.9,495.1c-4.3,4.4-12,7.6-22.8,7.6h-34.8v-16.3h34.8c3.3,0,5.4,0,7.6-2.2,1.1-1.1,2.2-3.3,2.2-5.4s-1.1-4.3-2.2-5.4c-1.1-1.1-3.3-2.2-6.5-2.2-17.4-1.1-38,0-38-23.9s5.9-19.7,20.5-22.4c1.7-.2,3.6-.4,5.6-.4h35.9v18.5h-33.7c-3.3,0-5.4,0-7.6,1.1-1.1,1.1-2.2,3.3-2.2,5.4,0,3.3,1.1,4.3,4.4,5.4,2.2,1.1,4.3,1.1,6.5,1.1h9.8c4.7,0,8.3.6,11.6,1.7,3,1.1,13,5.5,15.2,17.2.2,1.2.3,2.5.3,3.9,0,6.5-2.2,12-6.5,16.3h-.1Z"/>
  </g>
</svg>