<?xml version="1.0" encoding="UTF-8"?>
<svg id="Layer_1" xmlns="http://www.w3.org/2000/svg" version="1.1" xmlns:xlink="http://www.w3.org/1999/xlink" viewBox="0 0 573.3 484.7">
  <!-- Generator: Adobe Illustrator 29.1.0, SVG Export Plug-In . SVG Version: 2.1.0 Build 142)  -->
  <defs>
    <style>
      .st0 {
        fill: url(#linear-gradient2);
      }

      .st1 {
        fill: url(#linear-gradient1);
      }

      .st2 {
        fill: #231f20;
      }

      .st3 {
        fill: url(#linear-gradient);
      }
    </style>
    <linearGradient id="linear-gradient" x1="160" y1="12.3" x2="391.8" y2="244.1" gradientUnits="userSpaceOnUse">
      <stop offset="0" stop-color="#ed1c24"/>
      <stop offset="1" stop-color="#3921f5"/>
    </linearGradient>
    <linearGradient id="linear-gradient1" x1="183.4" y1="100.4" x2="415.2" y2="332.2" xlink:href="#linear-gradient"/>
    <linearGradient id="linear-gradient2" x1="182.6" y1="99.8" x2="414.4" y2="331.7" gradientTransform="translate(-5.4 9.7) rotate(-1.9)" xlink:href="#linear-gradient"/>
  </defs>
  <g>
    <path class="st3" d="M443.6,190.4c0-73.9-55.7-134.7-127.5-142.8,63.6,16.3,110.6,74.1,110.6,142.8s-47,126.4-110.6,142.8c71.7-8.1,127.5-68.9,127.5-142.8Z"/>
    <path class="st1" d="M281,46.9c-2.5-.1-5-.2-7.6-.2s-7,.2-10.5.4c-1.6.1-3.2.2-4.7.4-27.7,2.9-53,13.7-73.7,30-33.4,26.3-54.8,67.1-54.8,112.9s21.4,86.6,54.8,112.9c20.7,16.3,46,27.1,73.7,30,1.6.2,3.1.3,4.7.4,4.3,0,11.3.1,18.1.2,75.9-3.9,136.2-66.7,136.2-143.5s-60.3-139.6-136.2-143.5ZM273.4,297.3c-58.9,0-106.8-47.9-106.8-106.8s47.9-106.8,106.8-106.8,106.8,47.9,106.8,106.8-47.9,106.8-106.8,106.8Z"/>
    <path class="st0" d="M270.2,92.4c-54,1.8-96.5,47.2-94.7,101.2,1.8,54,47.2,96.5,101.2,94.7,54-1.8,96.5-47.2,94.7-101.3-1.8-54-47.2-96.5-101.3-94.7ZM315.8,236.5c-3.3,2.4-7.9,4.6-13.8,6.8-5.9,2.1-12.2,3.2-19.2,3.2-13.9,0-25.6-3.6-35.2-10.8-9.6-7.1-16.2-16.4-19.7-27.9h-11.9s0-14.2,0-14.2h9.3c-.1-.9-.1-2.3-.1-4.2s0-3.4.2-4.3h-9.5s0-14.1,0-14.1h11.8c3.5-12.1,9.9-21.9,19.4-29.1,9.5-7.3,20.7-10.9,33.8-10.8s12.7.9,18.4,2.7c5.6,1.8,10.6,4,14.9,6.7l-7.2,16.9c-8.4-5.9-16.9-8.9-25.6-8.9-7.2,0-13.9,2-20,6.1-6.1,4.1-10.7,9.6-13.7,16.5h26.5c0,.1,0,14.2,0,14.2h-30.1c-.1.6-.2,1.7-.2,3.1s0,3,.3,5.3h29.9c0,.1,0,14.2,0,14.2h-26.2c3,6.4,7.5,11.6,13.4,15.4,6,3.8,13,5.7,20.9,5.7,5.5,0,10.4-.8,14.8-2.4,4.4-1.6,8.1-3.7,11.1-6.3l7.5,16.2Z"/>
  </g>
  <g>
    <path class="st2" d="M64.2,408.7c0,7.7-6.1,12.3-17.7,12.3h-22.5v-45.2h21.2c10.8,0,16.7,4.6,16.7,11.7s-2.3,8.1-5.8,9.9c4.8,1.5,8.1,5.4,8.1,11.2ZM32.5,382.3v12.5h11.9c5.8,0,9.1-2.1,9.1-6.2s-3.3-6.3-9.1-6.3h-11.9ZM55.8,407.8c0-4.5-3.4-6.5-9.7-6.5h-13.6v13h13.6c6.3,0,9.7-2,9.7-6.5Z"/>
    <path class="st2" d="M109,410.5h-22.6l-4.5,10.5h-8.6l20.3-45.2h8.3l20.4,45.2h-8.8l-4.5-10.5ZM106.2,403.9l-8.5-19.8-8.5,19.8h17Z"/>
    <path class="st2" d="M164,420.9l-9.2-13.2c-.6,0-1.2,0-1.7,0h-10.2v13.2h-8.4v-45.2h18.6c11.9,0,19.2,6.1,19.2,16.1s-3.5,11.9-9.6,14.3l10.4,14.8h-9ZM152.7,382.8h-9.8v18h9.8c7.4,0,11.2-3.4,11.2-9s-3.8-9-11.2-9Z"/>
    <path class="st2" d="M223.2,413.8v7.1h-38.5v-5.6l26.6-32.5h-26.1v-7.1h37.2v5.6l-26.6,32.5h27.4Z"/>
    <path class="st2" d="M266.6,410.5h-22.6l-4.5,10.5h-8.6l20.3-45.2h8.3l20.4,45.2h-8.8l-4.5-10.5ZM263.9,403.9l-8.5-19.8-8.5,19.8h17Z"/>
    <path class="st2" d="M332.3,375.7v45.2h-8.4v-19.4h-23.4v19.4h-8.4v-45.2h8.4v18.7h23.4v-18.7h8.4Z"/>
    <path class="st2" d="M350.9,375.7h8.4v38.1h23.6v7.1h-32v-45.2Z"/>
    <path class="st2" d="M395,401.2v-25.5h8.4v25.2c0,9.3,4.2,13.3,11.5,13.3s11.4-4,11.4-13.3v-25.2h8.3v25.5c0,13.2-7.4,20.3-19.8,20.3s-19.8-7.2-19.8-20.3Z"/>
    <path class="st2" d="M492.9,375.7v45.2h-6.9l-24.9-30.6v30.6h-8.3v-45.2h6.9l24.9,30.6v-30.6h8.3Z"/>
    <path class="st2" d="M542.3,397.8h7.9v18c-4.7,3.8-11.3,5.7-17.7,5.7-14,0-24.3-9.7-24.3-23.2s10.3-23.2,24.5-23.2,13.9,2.5,18.1,7.4l-5.3,5.2c-3.5-3.6-7.6-5.2-12.5-5.2-9.6,0-16.4,6.5-16.4,15.9s6.8,15.9,16.3,15.9,6.4-.6,9.3-2.3v-14.1Z"/>
  </g>
</svg>