<?xml version="1.0" encoding="UTF-8"?>
<svg id="Capa_1" data-name="Capa 1" xmlns="http://www.w3.org/2000/svg" xmlns:xlink="http://www.w3.org/1999/xlink" viewBox="0 0 800 800">
  <defs>
    <style>
      .cls-1 {
        fill: #1d1d1b;
      }

      .cls-1, .cls-2 {
        fill-rule: evenodd;
      }

      .cls-2 {
        fill: url(#linear-gradient);
      }
    </style>
    <linearGradient id="linear-gradient" x1="-760.39" y1="-84.61" x2="-768.48" y2="-89.86" gradientTransform="translate(10968.6 1606.12) scale(13.8)" gradientUnits="userSpaceOnUse">
      <stop offset="0" stop-color="#f6a000"/>
      <stop offset=".6" stop-color="#e47e02"/>
      <stop offset="1" stop-color="#d36002"/>
    </linearGradient>
  </defs>
  <path class="cls-1" d="M251.58,404.37c0,36.86,28.88,65.41,66.17,65.41s19.58-2.08,30.63-7.33v-28.77c-9.73,9.73-18.48,13.78-29.53,13.78-24.61,0-42.11-17.83-42.11-43.2s18.05-43.09,41.02-43.09,20.45,4.16,30.63,14.11v-28.77c-10.72-5.47-19.58-7.66-30.08-7.66-37.08,0-66.72,29.09-66.72,65.63v-.11ZM188.9,373.96c0,6.78,4.27,10.39,19.03,15.75,27.78,10.17,36.09,19.14,36.09,39.16s-17.83,41.13-43.2,41.13-32.16-7.33-43.42-23.84l15.75-15.2c5.58,10.94,14.98,16.73,26.69,16.73s19.03-7.55,19.03-17.72-2.41-9.73-7.33-13.02c-2.41-1.53-7.33-3.72-16.95-7.11-22.97-8.31-30.84-17.06-30.84-34.34s16.95-35.88,39.05-35.88,26.36,4.7,36.86,13.89l-12.8,16.73c-6.34-7.11-12.36-10.17-19.69-10.17-10.5,0-18.27,6.02-18.27,13.89h0ZM123.61,467.04h24.5v-125.34h-24.5v125.34ZM73.62,435.87c-7.66,6.89-17.61,9.95-33.47,9.95h-6.56v-82.91h6.56c15.75,0,25.38,2.84,33.47,10.17,8.42,7.55,13.56,19.25,13.56,31.17s-5.03,24.06-13.56,31.61h0ZM45.08,341.7H9.2v125.34h35.66c19.03,0,32.7-4.48,44.73-14.44,14.33-11.81,22.75-29.64,22.75-48.13,0-36.97-27.67-62.78-67.27-62.78ZM508.83,341.7l33.47,84.22,33.91-84.22h26.47l-54.14,128.52h-13.13l-53.16-128.52h26.69-.11ZM613.72,467.04h69.34v-21.22h-44.95v-33.8h43.2v-21.22h-43.2v-27.78h44.95v-21.22h-69.34v125.34-.11ZM723.64,399.34h7.11c15.64,0,23.84-6.78,23.84-19.36s-8.31-18.59-23.52-18.59h-7.55v37.95h.11ZM735.46,341.7c28.22,0,44.41,13.56,44.41,36.97s-10.17,31.83-28.55,35.55l39.48,52.83h-30.08l-33.8-50.31h-3.17v50.31h-24.39v-125.34h36.2-.11Z"/>
  <path class="cls-2" d="M479.3,440.68c19.8-31.06,10.83-72.3-20.23-92.09h0c-31.06-19.8-72.3-10.83-92.09,20.23h0c-19.8,31.06-10.72,72.3,20.23,92.09h0c31.06,19.8,72.3,10.72,92.09-20.23h0Z"/>
</svg>