<?xml version="1.0" encoding="UTF-8"?>
<svg id="Capa_1" data-name="Capa 1" xmlns="http://www.w3.org/2000/svg" viewBox="0 0 800 800">
  <defs>
    <style>
      .cls-1 {
        fill: #231f20;
      }

      .cls-1, .cls-2, .cls-3, .cls-4 {
        fill-rule: evenodd;
      }

      .cls-2 {
        fill: #ee4023;
      }

      .cls-3 {
        fill: #fff;
        stroke: #0071bb;
        stroke-miterlimit: 2.61;
        stroke-width: 19.34px;
      }

      .cls-4 {
        fill: #0071bb;
      }
    </style>
  </defs>
  <path class="cls-3" d="M143.03,38.54h513.95c35.34,0,64.25,26.95,64.25,59.9v603.11c0,32.95-28.91,59.9-64.25,59.9H143.03c-35.34,0-64.25-26.95-64.25-59.9V98.44c0-32.95,28.91-59.9,64.25-59.9h0Z"/>
  <path class="cls-4" d="M182.84,669.96h-21.46v12.46c.23,2.77.23,4.84,2.31,6.69.46.23,1.15.92,2.54.92.46,0,1.38-.23,2.31-.92,2.54-1.85,2.54-4.38,2.31-7.15v-5.31h11.77c.23,4.85.23,12-1.62,16.38-1.85,3.92-6,7.15-15.23,7.15-5.08,0-10.84-1.38-13.61-5.77-3.23-5.08-3-12.92-3-19.15v-18.46c0-.92,0-6.46.92-10.38,2.54-10.84,12.92-11.31,16.15-11.31,2.08,0,3.46.23,4.15.23,3.69.69,7.15,2.31,9.46,5.31,3,4.61,3,11.54,3,16.84v12.46h0ZM170.85,660.5v-9.23c-.23-2.08-.46-3.92-1.85-5.31-.69-.69-1.61-1.15-2.77-1.15-.46,0-1.38.23-2.54.92-1.85,1.15-1.85,3-2.31,5.31v9.46h9.46Z"/>
  <polygon class="cls-1" points="202.22 615.51 202.22 699.73 189.76 699.73 189.76 615.51 202.22 615.51 202.22 615.51"/>
  <path class="cls-1" d="M243.75,669.96h-21.46v12.46c.23,2.77.46,4.84,2.31,6.69.46.23,1.15.92,2.54.92.46,0,1.38-.23,2.54-.92,2.31-1.85,2.31-4.38,2.08-7.15v-5.31h12c0,4.85,0,12-1.85,16.38-1.85,3.92-6,7.15-15.23,7.15-5.08,0-10.84-1.38-13.61-5.77-3.23-5.08-3-12.92-3-19.15v-18.46c0-.92,0-6.46.92-10.38,2.54-10.84,12.92-11.31,16.15-11.31,2.08,0,3.46.23,4.38.23,3.46.69,6.92,2.31,9.23,5.31,3,4.61,3,11.54,3,16.84v12.46h0ZM231.76,660.5v-9.23c-.23-2.08-.46-3.92-1.85-5.31-.69-.69-1.62-1.15-2.77-1.15-.23,0-1.38.23-2.54.92-1.85,1.15-1.85,3-2.31,5.31v9.46h9.46Z"/>
  <path class="cls-1" d="M271.44,658.2c0-5.31,0-9.69-1.15-11.54-.46-.69-1.15-1.38-3.23-1.38-.69,0-1.61.23-2.31.46-1.38,1.15-1.85,3-2.31,4.85-.23,5.77-.23,11.54-.23,17.3s.23,11.07.46,16.61c0,.69.23,1.38.23,1.85.23,1.38.69,3.69,4.38,3.69,4.15,0,4.38-3.69,4.38-7.61v-8.54l12.23.23v9c-.23,4.61-.46,8.54-3.46,12.23-1.38,2.08-3,2.77-3.92,3.46-1.38.46-4.85,1.61-9.23,1.61-1.62,0-9.69,0-13.84-5.54-3.23-4.15-3.46-9.46-3.46-14.54-.23-6.69-.46-13.15-.23-19.84.23-3.23.46-6.46.69-9.92.23-3,.46-3.69.92-5.31,2.54-7.15,8.08-8.77,10.38-9.23,2.54-.69,5.54-.69,6.23-.69,7.84,0,12,4.15,13.61,6.69,2.08,3.23,1.85,7.61,2.08,16.15h-12.23Z"/>
  <path class="cls-1" d="M291.74,636.05v-16.61h12.46v16.61h4.84v10.84h-4.84v36.22c0,2.77,0,4.61.92,5.54.69.46,1.62.46,2.54.69.46,0,.92.23,1.61.23l-.23,10.15h-7.84c-2.77.23-5.31.23-7.15-1.85-.69-.92-1.15-1.38-1.61-2.54-.23-.92-.46-1.85-.46-4.15v-44.3h-5.08v-10.84h4.85Z"/>
  <path class="cls-1" d="M326.12,636.05l-.46,12.23c1.15-4.38,1.85-6,3-7.61,3-4.85,6.69-5.31,12-5.77l-.23,15.23c-4.38-.23-8.54-.46-11.3,3-2.08,2.54-2.31,4.85-2.31,8.08v38.53h-12.69v-63.68h12Z"/>
  <path class="cls-1" d="M343.66,655.89c.23-4.84,0-8.77,2.54-13.15,2.08-3.46,5.77-7.15,14.31-7.15s12.23,3.23,14.07,7.15c2.54,5.08,2.08,11.54,2.08,23.3,0,3.69.23,7.38.23,11.07,0,.46.23,10.15-1.85,15-2.77,6.69-8.54,8.54-15.23,8.54-6,0-11.77-2.31-14.31-8.31-2.08-5.31-1.85-15.69-1.85-21.23v-15.23h0ZM364.65,662.35c0-3.23,0-6.23-.23-9.46,0-.23,0-3.23-.92-5.31-.92-1.85-2.31-2.08-3-2.08-1.62,0-3.69,1.38-4.15,4.84-.46,2.31-.46,6.69-.46,12.92v14.31c0,5.08.23,8.77,1.15,10.61.69,1.38,1.85,2.31,3.23,2.31.92,0,1.85-.23,2.31-.92,2.08-1.85,1.85-5.08,2.08-10.61v-16.61h0Z"/>
  <path class="cls-1" d="M396.49,636.05l.23,5.54c.69-.46,1.15-1.38,1.85-1.85,1.15-1.15,4.38-4.38,9.69-4.38,1.15,0,3.23,0,5.54,1.62,3.92,2.54,4.38,6,4.85,10.38v52.37h-12.46v-46.14c0-2.31-.23-4.15-2.08-5.54-.92-.69-1.61-.69-2.08-.69-1.61,0-2.77,1.15-3.23,1.38-2.54,2.77-2.54,6.69-2.31,9.92v41.07h-12v-63.68h12Z"/>
  <path class="cls-1" d="M439.41,636.05v63.68h-12.23v-63.68h12.23ZM439.64,615.51v12.23h-12.23v-12.23h12.23Z"/>
  <path class="cls-1" d="M468.71,658.2c0-5.31,0-9.69-1.15-11.54-.46-.69-1.38-1.38-3.23-1.38-.92,0-1.85.23-2.54.46-1.38,1.15-1.85,3-2.08,4.85-.23,5.77-.46,11.54-.46,17.3s.23,11.07.46,16.61c0,.69.23,1.38.23,1.85.23,1.38.92,3.69,4.38,3.69,4.38,0,4.38-3.69,4.38-7.61v-8.54l12.23.23v9c-.23,4.61-.46,8.54-3.23,12.23-1.62,2.08-3.23,2.77-4.15,3.46-1.38.46-4.84,1.61-9,1.61-1.85,0-9.69,0-13.84-5.54-3.23-4.15-3.46-9.46-3.69-14.54,0-6.69-.46-13.15,0-19.84,0-3.23.23-6.46.46-9.92.23-3,.46-3.69.92-5.31,2.54-7.15,8.08-8.77,10.38-9.23,2.54-.69,5.77-.69,6.46-.69,7.61,0,12,4.15,13.38,6.69,2.08,3.23,2.08,7.61,2.08,16.15h-12Z"/>
  <path class="cls-2" d="M523.85,658.2c0-5.31,0-9.69-1.15-11.54-.46-.69-1.15-1.38-3.23-1.38-.69,0-1.61.23-2.31.46-1.38,1.15-1.85,3-2.31,4.85-.23,5.77-.23,11.54-.23,17.3s.23,11.07.46,16.61c0,.69.23,1.38.23,1.85.23,1.38.69,3.69,4.38,3.69,4.15,0,4.38-3.69,4.38-7.61v-8.54l12.23.23v9c-.23,4.61-.46,8.54-3.46,12.23-1.38,2.08-3,2.77-3.92,3.46-1.38.46-4.84,1.61-9.23,1.61-1.61,0-9.69,0-13.84-5.54-3.23-4.15-3.46-9.46-3.46-14.54-.23-6.69-.46-13.15-.23-19.84.23-3.23.46-6.46.69-9.92.23-3,.46-3.69.92-5.31,2.54-7.15,8.08-8.77,10.38-9.23,2.54-.69,5.54-.69,6.23-.69,7.84,0,12,4.15,13.61,6.69,2.08,3.23,1.85,7.61,2.08,16.15h-12.23Z"/>
  <path class="cls-1" d="M542.08,655.89c-.23-7.61.23-12,2.08-15.23,3.69-5.31,12.46-5.54,13.61-5.54.46,0,8.08.23,11.54,3.46,2.54,2.31,3,6,3.46,13.38v47.99h-11.77v-5.08c-.46.92-1.15,2.08-1.85,3-1.85,1.85-5.31,2.54-7.84,2.54-1.85,0-6.46-.23-9-6-1.61-3.69-1.38-9.46-1.38-13.15v-3.92c.46-5.31,1.38-8.77,5.54-11.77,1.38-1.38,7.15-4.85,8.31-5.77,3.46-1.85,5.31-2.31,5.77-6.46.23-1.15.23-1.61.23-2.31s0-2.77-1.61-4.15c-.46,0-1.38-.46-2.31-.46-1.15,0-1.61.23-2.08,1.15-1.38,1.61-1.61,4.15-1.38,8.31h-11.3ZM557.54,669.96c0,.23-1.61,1.38-2.54,2.54-1.15,1.15-1.85,3.69-1.85,8.08,0,1.38.23,3,.46,4.38,0,1.85,0,3.23,1.38,4.38.46.23.92.69,1.85.69.69,0,1.38-.23,1.85-.46,1.38-.92,1.85-2.31,1.85-3.69.46-2.77.46-9.69.23-18.69-.92.92-2.08,1.85-3.23,2.77h0Z"/>
  <path class="cls-1" d="M590.07,675.5c-.23,6.46-.23,11.07,1.15,13.15.69,1.38,2.54,2.08,4.38,2.08,4.61,0,5.08-5.77,5.08-6.92,0-.46,0-1.85-.46-3-.92-2.77-2.31-3.92-6-7.84-2.31-2.08-4.61-4.38-6.69-6.69-.69-.69-1.38-1.15-2.08-2.08-1.85-1.61-6.23-5.77-6.23-13.38,0-1.15.23-4.38,1.62-7.38,1.61-4.15,5.08-8.08,14.3-8.08,8.31,0,11.54,2.54,13.61,5.77,2.77,4.61,2.54,9.92,2.54,15.23l-11.08-.23c.23-3.92.46-11.31-5.08-11.31-2.54,0-4.38,2.54-4.38,5.08,0,3.23,3.23,6,5.77,8.31,1.38,1.61,2.54,3,3.92,4.61,1.38,1.15,2.77,2.31,4.15,3.69,4.85,4.84,7.38,9.23,7.38,15.92,0,.92,0,9.23-3,13.15-1.85,2.54-6.69,4.85-14.31,4.85-10.38,0-14.07-5.77-15.46-10.61-.23-1.15-.46-2.54-.46-5.54v-8.77h11.31Z"/>
  <path class="cls-1" d="M630.91,615.51v25.15c3.46-3,6.69-5.54,11.07-5.54,3.23,0,5.31,1.38,6.23,2.08,4.38,3.23,4.38,8.54,4.38,13.61v49.14h-12.23v-46.38c0-.23.46-6.69-4.15-6.69-.46,0-2.08,0-3,1.15-2.08,2.08-2.31,6-2.31,8.31v43.38h-12.23v-84.21h12.23Z"/>
  <path class="cls-2" d="M653.63,582.73h-262.11c-21.48,0-36.04-21.48-36.04-36.77,0-14.2.36-390.25,0-404.81-.36-14.56,25.12-37.13,42.23-37.13,17.11.36,255.56,0,255.56,0v189.66h-139.06v-89.92s-9.1-.36-20.75,0c-5.82.36-15.65,6.19-15.65,15.65-.36,19.66,0,246.82,0,252.64,0,5.46,3.64,12.74,15.65,13.1,12.01.73,21.11,0,21.11,0v-97.2h139.06v194.76h0Z"/>
  <path class="cls-4" d="M192.76,104.02c28.76.36,238.45,0,238.45,0v283.95l-158.72-.36v83.36c0,1.46,4.01,13.83,18.2,14.56h19.66v-70.26h121.22l-.36,167.46h-239.54s-36.04-5.83-39.32-40.77c.36-13.1,0-394.98,0-401.53,0-6.19,13.83-36.4,40.41-36.4h0ZM310.71,203.04s-10.56-.73-20.02-.36c-9.83.36-18.2,9.83-18.2,15.65v75.36h38.23v-90.65h0Z"/>
  <path class="cls-1" d="M431.57,415.27h-76.08v130.69c0,14.93,14.56,36.4,35.68,36.77h40.04l.36-167.46h0Z"/>
  <path class="cls-1" d="M431.2,387.97V104.02h-33.49c-17.11,0-42.59,22.57-42.23,37.13v246.82h75.72Z"/>
</svg>