<?xml version="1.0" encoding="UTF-8"?>
<svg id="Capa_1" data-name="Capa 1" xmlns="http://www.w3.org/2000/svg" viewBox="0 0 800 800">
  <defs>
    <style>
      .cls-1 {
        fill: #231f20;
        fill-rule: evenodd;
      }

      .cls-2 {
        fill: #eb001b;
      }

      .cls-3 {
        fill: #ff5f00;
      }

      .cls-4 {
        fill: #f79e1b;
      }
    </style>
  </defs>
  <path class="cls-1" d="M231.12,633.7v63.12h-13.8v-7.6c-4.34,5.74-11.01,9.3-20.16,9.3-17.83,0-31.79-13.8-31.79-33.19s13.96-33.19,31.79-33.19,15.66,3.57,20.16,9.3v-7.6h13.8v-.15ZM198.87,645.02c-11.94,0-19.38,9.15-19.38,20.16s7.29,20.16,19.38,20.16,19.23-8.68,19.23-20.16-7.75-20.16-19.23-20.16ZM698.98,665.33c0-11.17,7.29-20.16,19.38-20.16s19.23,8.68,19.23,20.16-7.75,20.16-19.23,20.16-19.38-9.15-19.38-20.16ZM750.62,608.42v88.55h-13.8v-7.6c-4.34,5.74-11.01,9.3-20.16,9.3-17.83,0-31.79-13.8-31.79-33.19s13.96-33.19,31.79-33.19,15.66,3.57,20.16,9.3v-33.03h13.8v-.15ZM402.95,644.4c8.99,0,14.58,5.58,16.13,15.35h-33.03c1.55-9.15,7.13-15.35,16.9-15.35ZM371.47,665.33c0-19.69,13.03-33.19,31.79-33.19s30.08,13.49,30.24,33.19c0,1.86,0,3.57-.31,5.27h-47.3c2.02,11.32,10.08,15.51,19.07,15.51s13.18-2.33,18.45-6.67l6.82,10.23c-7.75,6.51-16.44,8.84-26.05,8.84-19.07,0-32.72-13.03-32.72-33.19h0ZM570.43,665.33c0-11.17,7.29-20.16,19.38-20.16s19.23,8.68,19.23,20.16-7.75,20.16-19.23,20.16-19.38-9.15-19.38-20.16h0ZM621.91,633.7v63.12h-13.8v-7.6c-4.34,5.74-11.01,9.3-20.16,9.3-17.83,0-31.79-13.8-31.79-33.19s13.96-33.19,31.79-33.19,15.66,3.57,20.16,9.3v-7.6h13.8v-.15ZM492.27,665.33c0,19.23,13.49,33.19,33.96,33.19s15.97-2.17,22.95-7.6l-6.67-11.17c-5.27,3.72-10.7,5.74-16.59,5.74-11.01,0-19.23-8.06-19.23-20.16s8.06-20.16,19.23-20.16c6.05,0,11.48,2.02,16.59,5.74l6.67-11.17c-6.98-5.43-13.34-7.6-22.95-7.6-20.47,0-33.96,13.96-33.96,33.19ZM654.01,641.45c3.57-5.58,8.84-9.3,16.75-9.3s6.82.47,9.92,1.71l-4.34,13.03c-2.95-1.24-5.89-1.55-8.68-1.55-8.99,0-13.65,5.74-13.65,16.28v35.36h-13.8v-63.12h13.65v7.6h.16ZM299.51,638.81c-6.67-4.34-15.82-6.67-25.9-6.67-16.13,0-26.52,7.6-26.52,20.16s7.75,16.59,22.02,18.61l6.51.93c7.6,1.09,11.17,3.1,11.17,6.67s-5.12,7.6-14.58,7.6-16.44-3.1-21.25-6.67l-6.51,10.7c7.6,5.58,17.21,8.22,27.6,8.22,18.45,0,29-8.53,29-20.62s-8.37-16.9-22.18-18.92l-6.51-.93c-6.05-.78-10.86-2.02-10.86-6.2s4.5-7.44,12.1-7.44,15.97,3.1,19.85,5.43l6.05-11.17v.31ZM461.41,641.45c3.57-5.58,8.84-9.3,16.75-9.3s6.82.47,9.92,1.71l-4.34,13.03c-2.95-1.24-5.89-1.55-8.68-1.55-8.99,0-13.65,5.74-13.65,16.28v35.36h-13.8v-63.12h13.65v7.6h.16ZM360.15,633.7h-22.64v-19.23h-13.96v19.23h-12.87v12.56h12.87v28.84c0,14.73,5.74,23.42,22.18,23.42s12.87-1.86,17.37-4.96l-4.03-11.79c-4.19,2.33-8.68,3.57-12.25,3.57-6.98,0-9.15-4.19-9.15-10.55v-28.53h22.64v-12.56h-.16ZM153.12,657.27v39.7h-13.96v-35.2c0-10.7-4.5-16.59-13.96-16.59s-15.51,5.89-15.51,16.75v35.05h-13.96v-35.2c0-10.7-4.65-16.59-13.8-16.59s-15.66,5.89-15.66,16.75v35.05h-13.96v-63.12h13.8v7.75c5.27-7.44,11.79-9.3,18.61-9.3,9.77,0,16.59,4.19,21.09,11.17,5.89-8.84,14.27-11.32,22.33-11.17,15.51,0,25.12,10.23,25.12,25.12l-.16-.15Z"/>
  <path class="cls-3" d="M504.83,526.39h-209.81V152.19h209.81v374.19h0Z"/>
  <path class="cls-2" d="M308.35,339.21c0-75.83,35.82-143.44,91.65-187.02-40.78-31.79-92.27-50.86-148.25-50.86-132.43,0-239.74,106.54-239.74,238.04s107.31,238.04,239.74,238.04,107.47-19.07,148.25-50.86c-55.83-43.58-91.65-111.19-91.65-187.02"/>
  <path class="cls-4" d="M787.99,339.21c0,131.5-107.31,238.04-239.74,238.04s-107.47-19.07-148.25-50.86c55.83-43.58,91.65-111.19,91.65-187.02s-35.82-143.44-91.65-187.02c40.78-31.79,92.27-50.86,148.25-50.86,132.43,0,239.74,106.54,239.74,238.04"/>
</svg>