<?xml version="1.0" encoding="UTF-8"?>
<svg id="Capa_1" data-name="Capa 1" xmlns="http://www.w3.org/2000/svg" viewBox="0 0 800 800">
  <defs>
    <style>
      .cls-1 {
        fill: #003087;
      }

      .cls-2 {
        fill: #009cde;
      }
    </style>
  </defs>
  <path class="cls-1" d="M138.89,304.98c-9.9-6.8-22.81-10.21-38.74-10.21h-61.67c-4.88,0-7.58,2.44-8.09,7.32L5.33,459.36c-.26,1.54.13,2.96,1.16,4.24,1.02,1.29,2.31,1.93,3.85,1.93h29.29c5.14,0,7.96-2.44,8.48-7.32l6.94-42.4c.25-2.05,1.16-3.73,2.7-5.01,1.54-1.28,3.47-2.12,5.78-2.51,2.31-.38,4.49-.57,6.55-.57s4.49.13,7.32.39c2.82.26,4.62.38,5.4.38,22.1,0,39.44-6.23,52.04-18.69,12.59-12.46,18.89-29.74,18.89-51.84,0-15.16-4.95-26.14-14.84-32.96ZM107.09,352.21c-1.29,9-4.63,14.9-10.02,17.73-5.4,2.83-13.11,4.24-23.13,4.24l-12.72.39,6.55-41.24c.51-2.82,2.18-4.24,5.01-4.24h7.33c10.27,0,17.73,1.48,22.36,4.43,4.62,2.96,6.17,9.19,4.62,18.7Z"/>
  <path class="cls-2" d="M789.73,294.77h-28.52c-2.83,0-4.5,1.41-5.01,4.24l-25.06,160.35-.39.77c0,1.29.51,2.51,1.54,3.66,1.02,1.15,2.31,1.73,3.85,1.73h25.44c4.88,0,7.57-2.44,8.1-7.32l25.05-157.65v-.38c0-3.6-1.68-5.4-5.01-5.4Z"/>
  <path class="cls-1" d="M445.14,356.83c0-1.28-.52-2.5-1.54-3.66-1.03-1.16-2.19-1.74-3.47-1.74h-29.68c-2.83,0-5.14,1.29-6.94,3.85l-40.86,60.13-16.96-57.82c-1.29-4.11-4.11-6.17-8.48-6.17h-28.91c-1.29,0-2.44.58-3.47,1.74-1.03,1.15-1.54,2.38-1.54,3.66,0,.52,2.51,8.1,7.52,22.74,5.01,14.65,10.41,30.45,16.19,47.42,5.78,16.96,8.8,25.96,9.06,26.98-21.07,28.78-31.61,44.2-31.61,46.25,0,3.34,1.67,5.01,5.01,5.01h29.68c2.83,0,5.14-1.28,6.94-3.85l98.29-141.85c.51-.51.77-1.41.77-2.7Z"/>
  <path class="cls-2" d="M721.51,351.43h-29.3c-3.6,0-5.78,4.24-6.55,12.72-6.69-10.27-18.89-15.42-36.62-15.42s-34.24,6.94-47.22,20.82c-12.98,13.88-19.46,30.2-19.46,48.95,0,15.16,4.43,27.24,13.3,36.23,8.87,9,20.75,13.49,35.66,13.49,7.45,0,15.03-1.54,22.74-4.63,7.71-3.08,13.74-7.19,18.12-12.33,0,.26-.26,1.41-.77,3.47-.52,2.06-.77,3.6-.77,4.63,0,4.12,1.67,6.17,5.01,6.17h26.6c4.88,0,7.71-2.44,8.48-7.32l15.81-100.6c.25-1.54-.13-2.95-1.16-4.24-1.03-1.28-2.31-1.93-3.85-1.93ZM671.21,427.37c-6.55,6.42-14.45,9.64-23.7,9.64-7.46,0-13.49-2.05-18.12-6.17-4.63-4.1-6.94-9.76-6.94-16.96,0-9.5,3.21-17.54,9.64-24.09,6.42-6.55,14.39-9.83,23.9-9.83,7.19,0,13.16,2.12,17.92,6.36,4.75,4.24,7.13,10.09,7.13,17.54,0,9.25-3.28,17.09-9.83,23.51Z"/>
  <path class="cls-1" d="M283.63,351.43h-29.3c-3.6,0-5.78,4.24-6.55,12.72-6.94-10.27-19.15-15.42-36.62-15.42-18.5,0-34.24,6.94-47.22,20.82-12.98,13.88-19.46,30.2-19.46,48.95,0,15.16,4.43,27.24,13.3,36.23,8.87,9,20.75,13.49,35.65,13.49,7.19,0,14.65-1.54,22.36-4.63,7.71-3.08,13.88-7.19,18.5-12.33-1.03,3.08-1.54,5.78-1.54,8.09,0,4.12,1.67,6.17,5.01,6.17h26.6c4.88,0,7.71-2.44,8.48-7.32l15.8-100.6c.25-1.54-.13-2.95-1.16-4.24-1.03-1.28-2.31-1.93-3.85-1.93ZM233.33,427.56c-6.55,6.3-14.59,9.44-24.09,9.44-7.46,0-13.43-2.05-17.92-6.17-4.5-4.1-6.75-9.76-6.75-16.96,0-9.5,3.21-17.54,9.64-24.09,6.42-6.55,14.39-9.83,23.9-9.83,7.19,0,13.17,2.12,17.92,6.36,4.75,4.24,7.13,10.09,7.13,17.54,0,9.51-3.28,17.41-9.83,23.7Z"/>
  <path class="cls-2" d="M576.77,304.98c-9.89-6.8-22.8-10.21-38.74-10.21h-61.29c-5.14,0-7.97,2.44-8.48,7.32l-25.05,157.27c-.26,1.54.12,2.96,1.16,4.24,1.02,1.29,2.31,1.93,3.85,1.93h31.61c3.08,0,5.14-1.67,6.17-5.01l6.94-44.71c.25-2.05,1.15-3.73,2.7-5.01,1.54-1.28,3.47-2.12,5.78-2.51,2.31-.38,4.49-.57,6.55-.57s4.49.13,7.32.39c2.83.26,4.63.38,5.4.38,22.1,0,39.44-6.23,52.04-18.69,12.59-12.46,18.89-29.74,18.89-51.84,0-15.16-4.95-26.14-14.84-32.96ZM537.26,368.39c-5.65,3.85-14.13,5.78-25.44,5.78l-12.34.39,6.55-41.24c.51-2.82,2.18-4.24,5.01-4.24h6.94c5.65,0,10.15.26,13.49.77,3.34.52,6.55,2.12,9.64,4.82,3.09,2.7,4.63,6.62,4.63,11.76,0,10.79-2.83,18.12-8.48,21.97Z"/>
</svg>