<?xml version="1.0" encoding="UTF-8"?>
<svg id="Capa_1" data-name="Capa 1" xmlns="http://www.w3.org/2000/svg" viewBox="0 0 800 800">
  <defs>
    <style>
      .cls-1, .cls-2 {
        fill: #15195a;
      }

      .cls-2 {
        fill-rule: evenodd;
      }
    </style>
  </defs>
  <path class="cls-1" d="M347.49,516.05h-63.83l39.88-231.26h63.83l-39.88,231.26Z"/>
  <path class="cls-1" d="M578.74,290.42c-12.57-4.67-32.57-9.82-57.25-9.82-62.99,0-107.3,31.5-107.66,76.53-.48,33.17,31.74,51.62,55.93,62.75,24.67,11.38,33.05,18.68,33.05,28.74-.24,15.45-20,22.63-38.32,22.63s-39.16-3.71-59.88-12.34l-8.38-3.71-8.98,51.86c14.97,6.35,42.51,12.1,71.14,12.34,66.95,0,110.54-31.02,111.02-79.04.24-26.35-16.77-46.47-53.53-62.99-22.28-10.54-35.93-17.72-35.93-28.5.24-9.82,11.5-19.88,36.77-19.88,20.72-.48,35.93,4.19,47.54,8.86l5.75,2.51,8.62-49.94h.12Z"/>
  <path class="cls-2" d="M692.87,284.79h49.34l51.5,231.26h-59.04s-5.75-26.59-7.66-34.73h-81.92c-2.4,6.11-13.41,34.73-13.41,34.73h-66.95l94.73-212.09c6.59-14.97,18.08-19.16,33.29-19.16h.12ZM688.92,369.46s-20.24,51.38-25.51,64.67h53.05c-2.63-11.62-14.73-66.95-14.73-66.95l-4.43-19.88c-1.92,5.15-4.55,12.22-6.47,16.89-1.2,3.23-2.04,5.39-1.92,5.15v.12Z"/>
  <path class="cls-2" d="M7.37,284.79h102.63c13.89.48,25.15,4.67,28.86,19.4l22.28,106.23h0l6.83,31.98,62.51-157.72h67.42l-100.24,231.02h-67.42l-56.89-200.96c-19.64-10.78-42.04-19.4-67.07-25.39l1.08-4.67v.12Z"/>
</svg>